HIERARCHY
ROOT Hips
{
	OFFSET 0 0 0
	CHANNELS 6 Xposition Yposition Zposition Xrotation Yrotation Zrotation
	JOINT LeftHandThumb1
	{
		OFFSET 1.78 -1.1 1.54
		CHANNELS 3 Xrotation Yrotation Zrotation
		JOINT LeftHandThumb2
		{
			OFFSET 3.18423 0 0
			CHANNELS 3 Xrotation Yrotation Zrotation
			JOINT LeftHandThumb3
			{
				OFFSET 3.62493 0 0
				CHANNELS 3 Xrotation Yrotation Zrotation
				JOINT LeftHandThumb4
				{
					OFFSET 2.65828 0 0
					CHANNELS 3 Xrotation Yrotation Zrotation
					End Site
					{
						OFFSET -0 0 0
					}
				}
			}
		}
	}
	JOINT LeftHandIndex1
	{
		OFFSET 7.4475 0.841835 3.96155
		CHANNELS 3 Xrotation Yrotation Zrotation
		JOINT LeftHandIndex2
		{
			OFFSET 4.09997 0 0
			CHANNELS 3 Xrotation Yrotation Zrotation
			JOINT LeftHandIndex3
			{
				OFFSET 1.88792 0 0
				CHANNELS 3 Xrotation Yrotation Zrotation
				JOINT LeftHandIndex4
				{
					OFFSET 1.76905 0 0
					CHANNELS 3 Xrotation Yrotation Zrotation
					End Site
					{
						OFFSET -0 0 0
					}
				}
			}
		}
	}
	JOINT LeftHandMiddle1
	{
		OFFSET 8.15202 0.976627 0.886065
		CHANNELS 3 Xrotation Yrotation Zrotation
		JOINT LeftHandMiddle2
		{
			OFFSET 4.6 0 0
			CHANNELS 3 Xrotation Yrotation Zrotation
			JOINT LeftHandMiddle3
			{
				OFFSET 2.00908 0 0
				CHANNELS 3 Xrotation Yrotation Zrotation
				JOINT LeftHandMiddle4
				{
					OFFSET 1.47333 0 0
					CHANNELS 3 Xrotation Yrotation Zrotation
					End Site
					{
						OFFSET -0 0 0
					}
				}
			}
		}
	}
	JOINT LeftHandRing1
	{
		OFFSET 7.18367 0.497501 -1.72915
		CHANNELS 3 Xrotation Yrotation Zrotation
		JOINT LeftHandRing2
		{
			OFFSET 4.36337 0 0
			CHANNELS 3 Xrotation Yrotation Zrotation
			JOINT LeftHandRing3
			{
				OFFSET 2.36208 0 0
				CHANNELS 3 Xrotation Yrotation Zrotation
				JOINT LeftHandRing4
				{
					OFFSET 1.73219 0 0
					CHANNELS 3 Xrotation Yrotation Zrotation
					End Site
					{
						OFFSET -0 0 0
					}
				}
			}
		}
	}
	JOINT LeftHandPinky1
	{
		OFFSET 7.41209 -0.417872 -3.72321
		CHANNELS 3 Xrotation Yrotation Zrotation
		JOINT LeftHandPinky2
		{
			OFFSET 2.81501 0 0
			CHANNELS 3 Xrotation Yrotation Zrotation
			JOINT LeftHandPinky3
			{
				OFFSET 2.01927 0 0
				CHANNELS 3 Xrotation Yrotation Zrotation
				JOINT LeftHandPinky4
				{
					OFFSET 1.19603 0 0
					CHANNELS 3 Xrotation Yrotation Zrotation
					End Site
					{
						OFFSET -0 0 0
					}
				}
			}
		}
	}
}
MOTION
Frames: 17
Frame Time: 0.00833333
0 0.000000 0 0 0 0 0 0 0 0 0 0 0 0 0 0 0 0 0 0 0 0 0 0 0 0 0 0 0 0 0 0 0 0 0 0 0 0 0 0 0 0 0 0 0 0 0 0 0 0 0 0 0 0 0 0 0 0 0 0 0 0 0 0 0 0
26.88075562 24.84196014 19.07169189 17.48761312 -81.19274226 2.98553103 -56.5449863 -24.9828518 -45.17139201 0.00000002 -9.94213695 0.00000027 0.00000005 -13.93003687 0.00000038 -0 0 0 -9.54499319 -8.92148287 5.75263923 -0 0 -0.10101807 -0 0 14.40229823 -0 0 0 1.35868324 -2.88715986 11.135547 -0 0 0.16994205 -0 0 13.75549536 -0 0 0 -0.37393909 6.27698595 10.35179068 -0 0 0.15436349 -0 0 22.7563738 -0 0 0 0.55830314 24.79780064 5.1423867 -0 0 0.3634478 -0 0 6.15243414 -0 0 0
26.87362366 24.84411621 19.06648254 16.90805016 -81.15851466 2.41304072 -56.50621291 -25.0147918 -45.18499821 0.00000002 -9.91935201 0.00000027 0.00000005 -13.93270043 0.00000038 -0 0 -0 -9.46453993 -8.96814383 5.78608808 -0 0 -0.10416807 -0 0 14.38974723 -0 0 0 1.43649412 -2.9280354 11.17623109 -0 0 0.24202574 -0 0 13.65513041 -0 0 0 -0.29794999 6.23573182 10.40142236 -0 0 0.14886928 -0 0 22.73869393 -0 0 0 0.6228958 24.75709443 5.16397644 -0 0 0.35662545 -0 0 6.14561227 -0 0 0
26.86897583 24.84910736 19.06248169 16.37891781 -81.14259447 1.88517232 -56.46399648 -25.04948579 -45.18973278 0.00000002 -9.89438444 0.00000027 0.00000005 -13.9367542 0.00000038 -0 -0 -0 -9.39235809 -8.99326436 5.81685564 -0 0 -0.10745252 -0 0 14.37824674 -0 0 0 1.50797158 -2.9491363 11.21560933 -0 0 0.22764238 -0 0 13.63743342 -0 0 0 -0.23119429 6.21447205 10.45452828 -0 0 0.13977573 -0 0 22.71612351 -0 0 0 0.67932869 24.73757123 5.18950387 -0 0 0.35577734 -0 0 6.14476398 -0 0 0
26.86885376 24.85875702 19.06223602 16.09391631 -81.15165092 1.60167501 -56.43042933 -25.07448025 -45.17832522 0.00000002 -9.86852408 0.00000027 0.00000005 -13.9445932 0.00000038 0 0 0 -9.35823928 -8.98938384 5.84538338 -0 0 -0.11292113 -0 0 14.36457832 -0 0 0 1.54216378 -2.93927334 11.24645473 -0 0 0.20180302 -0 0 13.6307279 -0 0 0 -0.20024069 6.22043055 10.48931549 -0 0 0.13700497 -0 0 22.70201243 -0 0 0 0.70077547 24.75044751 5.21414538 -0 0 0.35478996 -0 0 6.14377636 -0 0 0
26.86565857 24.87959137 19.06339722 15.8199494 -81.1758268 1.32995975 -56.40090134 -25.09476723 -45.15590445 0.00000002 -9.82508421 0.00000027 0.00000005 -13.95791685 0.00000038 0 0 0 -9.3210228 -8.96639449 5.87060603 -0 0 -0.11949138 -0 0 14.35800844 -0 0 0 1.577423 -2.91117956 11.28751093 -0 0 0.21672326 -0 0 13.59696974 -0 0 0 -0.17143867 6.24879695 10.51875058 -0 0 0.13976324 -0 0 22.69514175 -0 0 0 0.72015127 24.77939712 5.23940578 -0 0 0.35264807 -0 0 6.14163487 -0 0 0
26.86525574 24.87242432 19.05816193 15.37688227 -81.18712406 0.89168782 -56.36141572 -25.12237937 -45.14051792 0.00000002 -9.76016301 0.00000026 0.00000005 -13.97915659 0.00000038 -0 0 0 -9.25661694 -8.95434991 5.87357343 -0 0 -0.11637086 -0 0 14.3611286 -0 0 0 1.64188667 -2.89684457 11.30702142 -0 0 0.11577872 -0 0 13.70617707 -0 0 0 -0.11427857 6.26644964 10.54121235 -0 0 0.14767096 -0 0 22.69619159 -0 0 0 0.7697644 24.79204842 5.26045185 -0 0 0.35239018 -0 0 6.1413771 -0 0 0
26.86418152 24.88357086 19.05646973 15.08730131 -81.19235885 0.60486546 -56.32144246 -25.15071828 -45.12861054 0.00000002 -9.71671558 0.00000026 0.00000005 -14.00025314 0.00000038 0 -0 -0 -9.20711734 -8.95323684 5.87665893 -0 0 -0.11173399 -0 0 14.36576607 -0 0 0 1.69117893 -2.88660571 11.33038833 -0 0 0.11484933 -0 0 13.7115271 -0 0 0 -0.07238271 6.27463135 10.58007373 -0 0 0.14956124 -0 0 22.68854131 -0 0 0 0.80333764 24.79558845 5.30199454 -0 0 0.34529091 -0 0 6.13427748 -0 0 0
26.86490479 24.9001358 19.05531311 14.93720757 -81.20023563 0.45611517 -56.28397056 -25.17545765 -45.11797129 0.00000002 -9.68383259 0.00000026 0.00000005 -14.02447831 0.00000038 -0 0 -0 -9.16503992 -8.94878722 5.8807069 -0 0 -0.111686 -0 0 14.36581436 -0 0 0 1.7281279 -2.87243802 11.34239111 -0 0 0.07962462 -0 0 13.75945426 -0 0 0 -0.03947502 6.28280262 10.63360106 -0 0 0.14862397 -0 0 22.67634708 -0 0 0 0.82568711 24.79684906 5.33690894 -0 0 0.33778403 -0 0 6.12677052 -0 0 0
26.86667786 24.91133728 19.05324249 14.81245197 -81.21247098 0.33312066 -56.24804021 -25.19747193 -45.10781323 0.00000002 -9.64412401 0.00000026 0.00000005 -14.04988192 0.00000038 -0 0 0 -9.12141852 -8.93927721 5.88576156 -0 0 -0.1077066 -0 0 14.36979357 -0 0 0 1.76366593 -2.84976511 11.34531865 -0 0 0.06750519 -0 0 13.77777811 -0 0 0 -0.0030894 6.29705053 10.66364233 -0 0 0.15202626 -0 0 22.6701927 -0 0 0 0.85435786 24.80443601 5.35828834 -0 0 0.33780084 -0 0 6.12678714 -0 0 0
26.86846619 24.92090759 19.05242767 14.66160579 -81.21991024 0.18543589 -56.21581189 -25.21630757 -45.0985366 0.00000002 -9.6140967 0.00000026 0.00000005 -14.06880796 0.00000038 -0 -0 0 -9.07878663 -8.93206477 5.88863703 -0 0 -0.09758036 -0 0 14.37991823 -0 0 0 1.79728409 -2.82479046 11.34446506 -0 0 0.0615477 -0 0 13.78611611 -0 0 0 0.03463287 6.31526152 10.67965723 -0 0 0.15805218 -0 0 22.66826748 -0 0 0 0.89064488 24.82208899 5.37796735 -0 0 0.33786986 -0 0 6.12685657 -0 0 0
26.86749573 24.93625946 19.05259399 14.58770266 -81.2314317 0.11605858 -56.191586 -25.22670111 -45.0864761 0.00000002 -9.59450221 0.00000026 0.00000005 -14.08645137 0.00000039 -0 -0 0 -9.06085633 -8.91262926 5.88839452 -0 0 -0.08990295 -0 0 14.38759624 -0 0 0 1.80531709 -2.79017663 11.34228773 -0 0 0.06315755 -0 0 13.78297815 -0 0 0 0.04360962 6.3446197 10.68686404 -0 0 0.16673532 -0 0 22.67086613 -0 0 0 0.90073016 24.85274592 5.39005873 -0 0 0.33562338 -0 0 6.12460991 -0 0 0
26.87345276 24.94913788 19.05054016 14.51107305 -81.24878214 0.0452653 -56.17623412 -25.22810358 -45.0672935 0.00000002 -9.56944145 0.00000026 0.00000005 -14.10958959 0.00000039 0 0 -0 -9.06019275 -8.88307673 5.88163423 -0 0 -0.08691553 -0 0 14.39058425 -0 0 0 1.79668327 -2.74920576 11.33655152 -0 0 0.05935002 -0 0 13.79542927 -0 0 0 0.03519664 6.38003422 10.68172279 -0 0 0.1769641 -0 0 22.67681322 -0 0 0 0.89149273 24.8943152 5.39296061 -0 0 0.33831166 -0 0 6.12729801 -0 0 0
26.87817383 24.95280914 19.04920197 14.42557631 -81.26159825 -0.03612797 -56.16704941 -25.22275955 -45.04601201 0.00000002 -9.54648904 0.00000026 0.00000005 -14.14264575 0.00000039 -0 -0 0 -9.07672073 -8.86296798 5.87362743 -0 0 -0.08395024 -0 0 14.39354938 -0 0 0 1.77615385 -2.71523551 11.33699121 -0 0 0.08545237 -0 0 13.77573978 -0 0 0 0.01465017 6.41096971 10.67022759 -0 0 0.18685995 -0 0 22.68377667 -0 0 0 0.87020667 24.9316513 5.39357274 -0 0 0.34053978 -0 0 6.12952633 -0 0 0
26.8825531 24.95849457 19.04683685 14.32441024 -81.27031312 -0.13446549 -56.16285734 -25.21509553 -45.02579263 0.00000002 -9.54644735 0.00000026 0.00000005 -14.15459439 0.00000039 -0 0 0 -9.09852511 -8.85135043 5.86577185 -0 0 -0.07655489 -0 0 14.40094528 -0 0 0 1.75423697 -2.68821489 11.33983447 -0 0 0.09207871 -0 0 13.77583296 -0 0 0 -0.00623123 6.43283297 10.6733047 -0 0 0.19313172 -0 0 22.68645837 -0 0 0 0.84766378 24.95942445 5.39887196 -0 0 0.33906495 -0 0 6.12805129 -0 0 0
26.89176025 24.95958252 19.04407806 14.19165754 -81.27392426 -0.26622158 -56.15661998 -25.20999758 -45.0076525 0.00000002 -9.54776329 0.00000026 0.00000005 -14.16397861 0.00000039 0 -0 -0 -9.10958216 -8.84635135 5.8596481 -0 0 -0.06847561 -0 0 14.409024 -0 0 0 1.73628733 -2.67378938 11.34329066 -0 0 0.09285786 -0 0 13.79350785 -0 0 0 -0.01603354 6.44155105 10.68042828 -0 0 0.19839856 -0 0 22.68806545 -0 0 0 0.83133201 24.98143757 5.41412912 -0 0 0.33445775 -0 0 6.13396429 -0 0 0
26.89378967 24.95390778 19.04388885 14.14559554 -81.27490808 -0.30820228 -56.15107574 -25.20439923 -44.99305761 0.00000002 -9.55100579 0.00000026 0.00000005 -14.17313156 0.00000039 -0 -0 -0 -9.12364538 -8.84351893 5.84956373 -0 0 -0.06159101 -0 0 14.41590819 -0 0 0 1.71500293 -2.66586718 11.34571379 -0 0 0.10917985 -0 0 13.79139666 -0 0 0 -0.03020279 6.44029461 10.68994525 -0 0 0.20058457 -0 0 22.68519789 -0 0 0 0.81122589 24.9937995 5.43408046 -0 0 0.32725911 -0 0 6.13628042 -0 0 0
